<?xml version="1.0" encoding="UTF-8"?>
<!DOCTYPE svg PUBLIC "-//W3C//DTD SVG 1.1//EN" "http://www.w3.org/Graphics/SVG/1.1/DTD/svg11.dtd">
<!-- Creator: CorelDRAW 2020 (64 Bit) -->
<svg xmlns="http://www.w3.org/2000/svg" xml:space="preserve" width="59.3633mm" height="18.5113mm" version="1.1" style="shape-rendering:geometricPrecision; text-rendering:geometricPrecision; image-rendering:optimizeQuality; fill-rule:evenodd; clip-rule:evenodd"
viewBox="0 0 2024.05 631.16"
 xmlns:xlink="http://www.w3.org/1999/xlink"
 xmlns:xodm="http://www.corel.com/coreldraw/odm/2003">
 <defs>
  <style type="text/css">
   <![CDATA[
    .fil0 {fill:#1F485A;fill-rule:nonzero}
    .fil1 {fill:white;fill-rule:nonzero}
   ]]>
  </style>
 </defs>
 <g id="Camada_x0020_1">
  <metadata id="CorelCorpID_0Corel-Layer"/>
  <polygon class="fil0" points="-0,631.16 2024.05,631.16 2024.05,0 -0,0 "/>
  <path class="fil1" d="M235.24 240.76c-10.02,0 -16.94,-1.78 -32.33,-1.78 -7.12,0 -25.62,0.9 -28.53,0.9 -4.66,0 -4.89,-0.22 -4.89,-3.57 0,-3.78 0.22,-3.78 4.89,-4.23 14.28,-1.11 15.84,-2.24 15.84,-18.94l0 -109.64c0,-16.05 -2,-18.28 -15.84,-18.28 -5.12,0 -5.34,-0.23 -5.34,-4.01 0,-4.23 0.22,-4.46 5.34,-4.46 2.91,0 19.61,0.44 26.75,0.44 7.36,0 33.87,-0.44 50.81,-0.89 9.81,-0.22 29.86,16.72 29.86,36.1 0,16.05 -10.03,29.86 -20.51,35.21 -3.99,2 -3.78,2 2.24,3.34 12.7,2.9 29.2,17.15 29.2,37.88 0,29.87 -19.17,51.92 -57.49,51.92zm-19.62 -82.24c-5.78,0 -5.57,1.12 -5.57,4.02 0,27.18 0.22,58.39 0.22,61.27 0,6.24 0.67,7.14 24.97,7.14 27.85,0 42.56,-11.81 42.56,-30.53 0,-26.74 -24.96,-41.91 -62.18,-41.91zm10.48 -71.75c-15.6,0 -15.83,0.67 -15.83,3.78 0,12.26 -0.22,40.34 -0.22,54.15 0,4.23 0,6.24 4.46,6.24 15.16,0 27.63,-1.11 34.76,-2.67 7.14,-1.56 17.39,-12.49 17.39,-23.64 0,-20.04 -13.83,-37.88 -40.57,-37.88z"/>
  <path class="fil1" d="M489.29 235.19c-1.09,2.45 -2.21,4.9 -5.1,4.9 -10.26,0 -29.2,0.66 -58.17,0.66 -21.19,0 -51.05,-0.88 -53.94,-0.88 -5.12,0 -5.34,-0.23 -5.34,-3.78 0,-3.58 0.22,-3.8 5.34,-4.25 13.82,-1.1 14.26,-2.45 15.39,-17.15 0.45,-5.12 0.45,-33.65 0.45,-60.17 0,-23.84 -0.23,-46.56 -0.45,-51.03 -0.68,-16.94 -2.69,-18.27 -14.93,-18.27 -6.47,0 -6.91,-0.44 -6.91,-4.45 0,-3.78 0.44,-4.02 7.8,-4.02 1.55,0 29.2,0.67 56.38,0.44 26.08,0 51.69,-0.44 55.27,-0.66 6.69,-0.44 6.91,0 6.91,4.24 0,4.23 -0.22,16.71 -0.22,27.85 0,3.56 0,4.02 -4.24,4.02 -3.78,0 -3.78,-0.45 -4.68,-5.8 -0.89,-5.8 -3.13,-11.59 -5.35,-13.82 -2.44,-2.45 -14.49,-6.9 -48.36,-6.9 -19.37,0 -20.27,1.33 -20.49,4.45 -0.46,12.69 -1.35,40.33 -1.35,54.15 0,4.46 0.45,4.68 5.57,4.68 2.9,0 37.88,-0.68 42.13,-0.9 5.12,-0.43 5.78,-0.66 5.78,-6.45 0,-3.34 0.22,-7.58 0.45,-10.04 0.22,-2.23 0.22,-2.67 4.24,-2.67 4.02,0 4.22,0.44 4.22,5.58 0,4 -0.2,38.55 -0.2,41.89 0,5.12 -0.45,5.56 -5.58,5.56 -2.91,0 -3.13,-0.22 -3.13,-3.78 0,-2.22 0.22,-13.82 0.22,-14.92 0,-2.23 -0.44,-4.68 -11.13,-4.68l-35.66 0c-6.23,0 -6.91,0.22 -6.91,4.01 0,17.83 0,55.26 0.24,57.93 0.44,7.36 1.34,10.7 24.94,10.7 27.43,0 39.91,-0.66 45.93,-4.68 3.77,-2.23 8.91,-12.04 12.02,-20.28 0.9,-2.68 2.46,-3.12 4.69,-2.9 1.55,0.22 2.89,2.24 2.89,3.12 -2.22,12.04 -6.23,24.08 -8.7,28.31z"/>
  <path class="fil1" d="M723.75 235.41c-2.89,2.68 -9.81,8.03 -19.39,8.03 -11.58,0 -20.49,-2.68 -27.42,-11.81 -4.21,-5.8 -17.15,-26.52 -21.38,-34.76 -4.01,-7.8 -12.92,-23.41 -15.82,-27.64 -2.67,-4.01 -3.12,-4.01 -6.24,-4.01 -3.8,0 -9.36,-0.44 -16.48,-0.89 -3.57,-0.22 -4.02,0.23 -4.02,3.34l0 48.8c0,13.82 2.45,15.16 22.29,15.16 3.77,0 4,0.22 4,4.24 0,3.78 -0.22,4.01 -4,4.01 -6.02,0 -21.63,-0.45 -32.1,-0.45 -12.03,0 -20.06,0.45 -23.62,0.45 -5.12,0 -5.35,-0.23 -5.35,-3.78 0,-4.46 0.23,-4.68 5.35,-4.68 10.03,0 13.14,-2.24 13.14,-16.27 0,-5.13 0.23,-34.1 0.23,-60.62 0,-23.84 -0.23,-47.01 -0.23,-51.47 0,-16.71 -2.67,-18.28 -14.25,-18.28 -5.81,0 -6.24,-0.22 -6.24,-3.78 0,-4.01 0.43,-4.24 6.24,-4.24 6.91,0 22.94,0.44 38.34,0.44 16.03,0 33.42,-0.44 36.99,-0.44 16.93,0 34.53,14.7 34.53,41.9 0,22.28 -14.92,34.99 -28.97,40.34 -2.67,1.12 -2.89,1.56 -1.78,3.12 7.14,9.13 15.38,24.06 21.84,34.99 11.82,19.83 21.61,35.43 31.65,35.43 4.21,0 7.12,-0.89 10.03,-2.69 1.99,-1.1 2.44,-0.88 3.33,1.35 0.89,2.45 0.89,2.89 -0.66,4.23zm-98.49 -149.08c-12.72,0 -12.26,0.88 -12.26,13.37 0,12.7 0.22,37.44 0,51.03 0,5.13 0.44,5.35 4.68,5.8 4.45,0.44 8.92,1.11 16.94,0.66 18.95,-0.9 38.33,-8.91 38.33,-31.65 0,-20.5 -20.73,-39.21 -47.68,-39.21z"/>
  <path class="fil1" d="M983.6 239.87c-3.12,0 -14.02,-0.9 -21.17,-0.9 -7.36,0 -22.5,0.9 -26.07,0.9 -3.79,0 -4.01,-0.22 -4.01,-4.01 0,-4.46 0.21,-4.68 6.02,-4.68 9.35,0 10.47,-1.12 10.47,-10.93 0,-20.94 -0.22,-61.5 -1.12,-90.92 -0.44,-12.92 -0.66,-12.92 -4.23,-4.68 -4.01,9.14 -40.11,89.81 -47.03,104.3 -6.46,13.36 -6.9,14.26 -8.47,14.26 -1.55,0 -2.21,-0.67 -8.01,-13.38 -6.68,-14.92 -41.9,-90.69 -50.14,-107.85 -3.55,-7.35 -4.22,-7.35 -5.35,4.68 -2.68,28.07 -5.57,79.77 -5.57,90.47 0,10.46 2.89,12.47 19.38,14.04 5.36,0.44 5.58,0.88 5.58,4.68 0,3.78 -0.22,4.01 -4.02,4.01 -2.9,0 -20.5,-0.9 -27.86,-0.9 -7.34,0 -14.02,0.9 -17.15,0.9 -4.67,0 -4.9,-0.44 -4.9,-3.78 0,-4.68 0.22,-4.9 5.12,-4.9 9.8,-0.23 10.93,-3.34 12.27,-17.61 0.87,-9.37 7.11,-96.71 7.34,-106.07 0.45,-18.05 -2.46,-22.29 -18.72,-22.51 -4.68,0 -5.13,-0.22 -5.13,-4.01 0,-4.01 0.45,-4.24 5.13,-4.24 3.11,0 9.36,0.45 16.93,0.45 4.68,0 10.47,-0.45 14.05,-0.45 4,0 4.22,0.23 6.01,4.46 1.34,3.11 45.23,93.59 54.15,111.87 5.58,11.36 7.13,14.04 8.25,14.04 1.55,0 2.44,-2.02 7.79,-13.16 7.37,-15.37 39.9,-86.67 51.26,-112.75 1.78,-4.23 2.45,-4.46 6.46,-4.46 2.89,0 5.79,0.45 8.26,0.45 3.99,0 9.35,-0.45 12.46,-0.45 4.92,0 5.36,0.23 5.36,4.02 0,3.78 -0.23,4.01 -5.58,4.9 -12.47,2.23 -13.82,3.56 -13.82,17.38 0,9.36 1.35,95.15 2.22,113.65 0.67,12.47 4.01,13.59 13.82,14.49 5.35,0.44 5.57,0.88 5.57,4.68 0,3.78 -0.22,4.01 -5.57,4.01z"/>
  <path class="fil1" d="M1227.41 85c-13.59,-0.23 -16.26,2.68 -16.71,12.93 -0.45,10.03 -0.89,59.5 -1.79,84.23 -1.56,41.9 -21.61,61.51 -62.84,61.51 -42.8,0 -61.96,-19.61 -63.73,-52.81 -0.46,-9.36 0,-81.33 0,-90.7 0,-12.71 -1.12,-13.82 -16.72,-15.15 -4.89,-0.45 -5.12,-0.68 -5.12,-4.46 0,-3.55 0.23,-3.78 5.12,-3.78 3.12,0 18.94,0.66 26.3,0.66 7.14,0 25.85,-0.66 28.97,-0.66 4.01,0 4.23,0.24 4.23,4.46 0,4.45 -0.22,4.67 -6.02,4.67 -13.36,-0.22 -14.93,1.12 -15.37,13.59 -0.45,12.7 -1.35,73.32 -1.35,87.36 0,20.95 10.48,44.8 47.47,44.8 31.2,0 47.69,-13.37 48.59,-57.94 0.23,-14.05 0,-58.4 0,-70.86 0,-15.15 -3.79,-17.39 -21.39,-17.39 -5.57,0 -5.8,-0.22 -5.8,-4.22 0,-4.23 0.45,-4.46 4.03,-4.46 3.09,0 18.26,0.66 25.17,0.66 7.12,0 24.28,-0.66 27.4,-0.66 4.9,0 5.35,0.24 5.35,3.78 0,4.24 -0.22,4.46 -5.8,4.46z"/>
  <path class="fil1" d="M1387.89 242.76c-16.05,0 -34.1,-3.78 -49.48,-3.78 -7.14,0 -25.64,0.89 -28.52,0.89 -4.68,0 -4.9,-0.23 -4.9,-3.78 0,-3.8 0,-4.02 4.9,-4.68 14.71,-1.79 15.15,-3.12 15.83,-18.29 0.44,-9.35 0.44,-99.83 0,-109.64 -0.68,-15.6 -2.46,-18.04 -15.83,-18.04 -6.02,0 -6.24,-0.22 -6.24,-4.24 0,-4.23 0.22,-4.45 6.24,-4.45 2.88,0 19.61,0.44 26.75,0.44 7.35,0 48.58,-0.22 65.51,-0.44 30.32,-0.44 65.08,38.11 65.08,82.68 0,46.34 -22.74,83.33 -79.33,83.33zm-23.84 -155.54c-14.93,0 -18.72,0.67 -18.72,3.34 0,12.69 1.34,48.14 1.11,62.17 0,28.31 -1.11,65.07 -1.11,68.86 0,7.13 7.57,11.37 42.56,11.37 44.8,0 64.84,-22.07 64.84,-64.64 0,-46.12 -34.1,-81.11 -88.69,-81.11z"/>
  <path class="fil1" d="M1666.23 235.19c-1.12,2.45 -2.24,4.9 -5.12,4.9 -10.24,0 -29.18,0.66 -58.16,0.66 -21.18,0 -51.04,-0.88 -53.94,-0.88 -5.11,0 -5.34,-0.23 -5.34,-3.78 0,-3.58 0.22,-3.8 5.34,-4.25 13.83,-1.1 14.27,-2.45 15.39,-17.15 0.45,-5.12 0.45,-33.65 0.45,-60.17 0,-23.84 -0.22,-46.56 -0.45,-51.03 -0.67,-16.94 -2.69,-18.27 -14.95,-18.27 -6.46,0 -6.9,-0.44 -6.9,-4.45 0,-3.78 0.44,-4.02 7.79,-4.02 1.56,0 29.2,0.67 56.37,0.44 26.08,0 51.71,-0.44 55.28,-0.66 6.69,-0.44 6.92,0 6.92,4.24 0,4.23 -0.23,16.71 -0.23,27.85 0,3.56 0,4.02 -4.24,4.02 -3.78,0 -3.78,-0.45 -4.67,-5.8 -0.89,-5.8 -3.14,-11.59 -5.36,-13.82 -2.45,-2.45 -14.48,-6.9 -48.37,-6.9 -19.37,0 -20.26,1.33 -20.5,4.45 -0.44,12.69 -1.32,40.33 -1.32,54.15 0,4.46 0.43,4.68 5.57,4.68 2.9,0 37.88,-0.68 42.13,-0.9 5.11,-0.43 5.78,-0.66 5.78,-6.45 0,-3.34 0.22,-7.58 0.45,-10.04 0.22,-2.23 0.22,-2.67 4.23,-2.67 4.01,0 4.23,0.44 4.23,5.58 0,4 -0.22,38.55 -0.22,41.89 0,5.12 -0.44,5.56 -5.55,5.56 -2.91,0 -3.13,-0.22 -3.13,-3.78 0,-2.22 0.22,-13.82 0.22,-14.92 0,-2.23 -0.44,-4.68 -11.14,-4.68l-35.65 0c-6.24,0 -6.9,0.22 -6.9,4.01 0,17.83 0,55.26 0.23,57.93 0.43,7.36 1.33,10.7 24.93,10.7 27.42,0 39.91,-0.66 45.91,-4.68 3.79,-2.23 8.9,-12.04 12.04,-20.28 0.89,-2.68 2.45,-3.12 4.68,-2.9 1.55,0.22 2.89,2.24 2.89,3.12 -2.23,12.04 -6.23,24.08 -8.69,28.31z"/>
  <path class="fil1" d="M1798.62 241.2c-14.71,0 -28.96,-4.68 -34.76,-6.46 -5.13,-1.55 -5.8,-0.66 -6.46,2.68 -0.68,3.57 -0.9,7.14 -3.12,7.14 -5.34,0 -5.79,-0.23 -5.56,-4.24 0.22,-5.12 -0.23,-18.27 -0.23,-24.28 0,-6.02 -1.35,-19.17 -1.35,-20.95 0,-4.45 0.23,-4.68 3.8,-4.68 3.33,0 3.79,0.23 4.45,2.68 1.1,4.46 2.9,14.92 5.36,18.94 1.78,2.89 16.03,18.94 47.9,18.94 18.72,0 32.53,-14.04 32.53,-30.09 0,-17.15 -12.7,-23.84 -44.8,-35.43 -30.98,-11.14 -42.77,-23.4 -42.77,-46.35 0,-22.51 20.27,-43.68 47.02,-43.68 13.35,0 23.38,3.12 31.19,4.9 3.78,0.89 6.9,0.89 9.58,0.89 3.33,0 3.56,0 4.45,6.9 0.44,3.13 1.56,19.17 2.02,27.42 0.22,4.45 0,4.89 -4.47,4.89 -3.57,0 -3.79,-0.44 -4.22,-4.23 -2.46,-22.5 -18.28,-30.31 -40.79,-30.31 -21.62,0 -32.32,12.04 -32.32,26.3 0,15.82 16.28,23.62 41.45,32.09 35.42,12.03 47.46,27.18 47.46,48.8 0,26.52 -26.51,48.13 -56.38,48.13z"/>
  <path class="fil1" d="M268.84 524.45l-10.29 28.69 -13.73 0 37.07 -98.56 15.11 0 35.68 98.56 -14.55 0 -9.75 -28.69 -39.54 0zm34.73 -11.81l-14.55 -43.38 -0.27 0 -15.79 43.38 30.61 0z"/>
  <path class="fil1" d="M427.82 454.57l39.95 0c25.67,0 41.45,19.49 41.45,47.91 0,22.1 -9.6,50.65 -42.02,50.65l-39.39 0 0 -98.56zm13.31 87.17l25.8 0c17.3,0 28.56,-13.59 28.56,-38.44 0,-24.85 -11.4,-37.35 -29.51,-37.35l-24.85 0 0 75.78z"/>
  <polygon class="fil1" points="671.91,454.57 686.88,454.57 650.91,553.14 636.76,553.14 600.79,454.57 615.63,454.57 643.78,538.58 644.03,538.58 "/>
  <path class="fil1" d="M825.25 555.75c-36.79,0 -48.04,-30.62 -48.04,-51.89 0,-21.28 11.25,-51.9 48.04,-51.9 36.79,0 48.05,30.62 48.05,51.9 0,21.28 -11.26,51.89 -48.05,51.89zm0 -91.97c-21.42,0 -34.32,16.87 -34.32,40.08 0,23.2 12.91,40.08 34.32,40.08 21.43,0 34.32,-16.88 34.32,-40.08 0,-23.21 -12.9,-40.08 -34.32,-40.08z"/>
  <path class="fil1" d="M1014.29 500.42l43.25 0 0 52.72 -8.64 0 -3.16 -12.77c-6.73,9.34 -19.08,15.38 -32.53,15.38 -16.89,0 -25.13,-6.18 -30.2,-11.13 -15.12,-14.28 -15.53,-31.16 -15.53,-41.59 0,-24.02 14.56,-51.07 46.68,-51.07 18.39,0 38.86,10.43 41.73,32.53l-12.9 0c-4.25,-17.16 -18.67,-20.72 -29.52,-20.72 -17.7,0 -32.25,14.13 -32.25,39.94 0,20.05 6.6,40.64 32.81,40.64 4.94,0 12.9,-0.55 20.17,-6.31 8.66,-6.87 10.85,-15.65 10.85,-26.23l-30.76 0 0 -11.39z"/>
  <path class="fil1" d="M1175.87 524.45l-10.3 28.69 -13.73 0 37.07 -98.56 15.1 0 35.7 98.56 -14.55 0 -9.75 -28.69 -39.54 0zm34.74 -11.81l-14.56 -43.38 -0.28 0 -15.78 43.38 30.62 0z"/>
  <path class="fil1" d="M1334.85 454.57l39.95 0c25.67,0 41.46,19.49 41.46,47.91 0,22.1 -9.61,50.65 -42.02,50.65l-39.39 0 0 -98.56zm13.31 87.17l25.82 0c17.29,0 28.55,-13.59 28.55,-38.44 0,-24.85 -11.39,-37.35 -29.52,-37.35l-24.85 0 0 75.78z"/>
  <path class="fil1" d="M1558.48 555.75c-36.8,0 -48.04,-30.62 -48.04,-51.89 0,-21.28 11.24,-51.9 48.04,-51.9 36.79,0 48.04,30.62 48.04,51.9 0,21.28 -11.26,51.89 -48.04,51.89zm0 -91.97c-21.42,0 -34.33,16.87 -34.33,40.08 0,23.2 12.91,40.08 34.33,40.08 21.42,0 34.31,-16.88 34.31,-40.08 0,-23.21 -12.89,-40.08 -34.31,-40.08z"/>
  <path class="fil1" d="M1764 483.4c-0.69,-15.25 -13.33,-20.05 -24.45,-20.05 -8.37,0 -22.5,2.34 -22.5,17.3 0,8.37 5.89,11.13 11.67,12.5l28.15 6.44c12.76,3.03 22.37,10.71 22.37,26.37 0,23.33 -21.69,29.78 -38.57,29.78 -18.27,0 -25.4,-5.49 -29.81,-9.48 -8.37,-7.54 -10,-15.78 -10,-24.98l12.48 0c0,17.84 14.56,23.07 27.18,23.07 9.61,0 25.81,-2.48 25.81,-16.61 0,-10.3 -4.8,-13.59 -21,-17.44l-20.19 -4.67c-6.44,-1.5 -20.99,-6.04 -20.99,-23.2 0,-15.38 10.02,-30.48 33.9,-30.48 34.46,0 37.9,20.6 38.44,31.45l-12.48 0z"/>
  <polygon class="fil1" points="1976.94,343.4 47.11,343.4 47.11,333.12 1976.94,333.12 "/>
 </g>
</svg>
